<!--?xml version="1.0" encoding="utf-8"?-->
<!-- Svg Vector Icons : http://www.onlinewebfonts.com/icon -->

<svg version="1.1" xmlns="http://www.w3.org/2000/svg" xmlns:xlink="http://www.w3.org/1999/xlink" x="0px" y="0px" viewBox="0 0 256 256" enable-background="new 0 0 256 256" xml:space="preserve">
<metadata> Svg Vector Icons : http://www.onlinewebfonts.com/icon </metadata>
<g><g><g><path fill="#0077b6" data-title="Layer 0" xs="0" d="M87.6,10.3c-17.3,3.1-29.2,16.4-30.3,33.8c-1.6,24.8,16,52.5,50.8,80.3c7.5,6,19.3,14.6,20,14.6c0.6,0,5-3.2,12.5-8.8c40.1-30.3,59.9-59.6,58.2-86.1c-1-15.9-11.3-28.6-26.5-33c-4.9-1.4-14.6-1.5-19.2-0.2c-9.1,2.6-17.8,8.9-23.2,16.9c-0.9,1.3-1.7,2.4-1.9,2.4s-1-1.1-1.9-2.4c-5.5-8.1-14-14.3-23.6-16.9C99.5,10.1,90.7,9.7,87.6,10.3z"/><path fill="#0077b6" data-title="Layer 1" xs="1" d="M14,58.7c-0.9,0.3-1.1,0.9-1.7,6C9,89.1,9.3,132.9,13,150.6c2.1,10.5,8.7,18.8,25.9,33.2c10.9,9.1,15.4,13.4,18.8,17.9c6.3,8.4,6.9,10.9,6.9,29.1c0,11.9,0.1,13.9,0.7,14.5c0.6,0.6,3.5,0.7,24.2,0.7c19.6,0,23.6-0.1,24.1-0.6c0.4-0.5,0.5-7.7,0.4-27.9l-0.1-27.3l-1.1-3c-2.4-6.3-8.3-13.2-16.6-19.1c-2-1.4-6.9-4.7-11-7.4c-11.9-7.7-15-10.1-23.1-18.9c-8.7-9.4-13.2-13.4-17.7-15.7c-3.1-1.5-3.7-1.6-6.4-1.4c-5.9,0.4-8.8,3.9-7.7,9.4c1.9,9.4,12.4,22.9,26.3,34.1c8.8,7,13.8,12.4,18.1,19.4c2,3.3,2,4.8-0.3,5c-1.3,0.1-1.6-0.2-4.1-4.2c-3.6-5.6-8.5-10.7-17.4-18c-9.7-8-14.6-13.2-19.9-21c-6.5-9.6-8.6-17.5-6.1-22.7c1.1-2.3,3.8-4.5,6.6-5.5c1.3-0.5,1.4-0.6,1.2-1.9c-1.4-6.8-4.6-28.1-5.6-36.9c-0.6-6-1.5-12.2-1.9-13.8c-1.1-4.3-3.1-7.5-5.7-8.8C19.4,59,15.5,58.3,14,58.7z"/><path fill="#0077b6" data-title="Layer 2" xs="2" d="M236.7,59.1c-3,0.8-4.9,2.4-6.2,4.9c-1.7,3.4-2.4,6.9-3.7,18.3c-1,8.7-4.3,30.7-5.6,37.1c-0.2,1.3-0.1,1.5,0.8,1.8c0.6,0.2,2.1,1,3.3,1.7c5.6,3.5,6.2,10,1.8,19.2c-4.7,9.8-12,18.4-24.1,28.4c-10,8.3-15,13.6-18.8,20c-1.1,2-1.4,2.2-2.7,2.1c-3.2-0.3-2.2-3.1,4.1-11.3c3.4-4.4,6.9-7.8,14.7-14c10.5-8.5,18.7-18,22.9-26.7c3.7-7.6,3.7-11.6-0.2-14.3c-1.6-1.1-2.5-1.4-5-1.6c-2.7-0.2-3.3,0-6.3,1.4c-4.6,2.3-8.5,5.7-17.7,15.5c-8.6,9.3-11.1,11.3-23.6,19.3c-17.4,11.2-23.8,17.5-27.2,26.4c-1,2.7-1,3.1-1.2,30c-0.1,20.1,0,27.4,0.4,27.9c0.5,0.6,4.5,0.6,24.1,0.6c20.7,0,23.6-0.1,24.2-0.7c0.6-0.6,0.7-2.5,0.7-14.3c0-7.5,0.2-14.6,0.4-15.8c1.8-9.4,8-17,25-31.2c9.7-8.1,16.4-14.5,19.6-19.1c3-4.1,5.6-10,6.5-14.3c2.5-12.3,3.7-42.2,2.6-63.7c-0.7-12.6-2.2-27.1-3-27.9C242.1,58.5,238.6,58.5,236.7,59.1z"/></g></g></g>
</svg>